<svg width="92" height="92" viewBox="0 0 92 92" fill="none" xmlns="http://www.w3.org/2000/svg">
<path opacity="0.6" d="M38.7548 15.3334C38.4481 16.4834 38.3332 17.7484 38.3332 19.1667V30.6667H19.1665V23C19.1665 18.7834 22.6165 15.3334 26.8332 15.3334H38.7548Z" fill="#7AA7B1"/>
<path d="M38.3332 72.8333V30.6666H19.1665C11.4998 30.6666 7.6665 34.5 7.6665 42.1666V72.8333C7.6665 80.5 11.4998 84.3333 19.1665 84.3333H49.8332C42.1665 84.3333 38.3332 80.5 38.3332 72.8333ZM25.8748 65.1666C25.8748 66.7383 24.5715 68.0416 22.9998 68.0416C21.4282 68.0416 20.1248 66.7383 20.1248 65.1666V49.8333C20.1248 48.2616 21.4282 46.9583 22.9998 46.9583C24.5715 46.9583 25.8748 48.2616 25.8748 49.8333V65.1666Z" fill="#7AA7B1"/>
<path d="M53.6668 84.3333H49.8335C42.1668 84.3333 38.3335 80.5 38.3335 72.8333V19.1666C38.3335 11.5 42.1668 7.66663 49.8335 7.66663H72.8335C80.5002 7.66663 84.3335 11.5 84.3335 19.1666V72.8333C84.3335 80.5 80.5002 84.3333 72.8335 84.3333H69.0002" fill="#45727C"/>
<path d="M68.9998 69V84.3333H53.6665V69C53.6665 66.8916 55.3915 65.1666 57.4998 65.1666H65.1665C67.2748 65.1666 68.9998 66.8916 68.9998 69Z" fill="#7AA7B1"/>
</svg>
