<svg width="145" height="58" viewBox="0 0 145 58" fill="none" xmlns="http://www.w3.org/2000/svg">
<path d="M143.246 33.2912C142.011 31.8913 140.08 30.8316 137.598 31.0186C136.475 31.1012 135.686 31.3682 134.932 31.7897C134.158 32.2179 133.547 32.7085 133.023 33.2912C132.037 34.397 131.115 35.9718 131.259 38.3908C131.484 42.1649 134.509 44.9932 138.135 44.9607C140.189 44.9417 141.753 44.0988 142.958 42.8683C144.072 41.7353 144.988 40.1173 144.976 37.8785C144.964 35.9785 144.136 34.2981 143.246 33.2912Z" fill="black"/>
<path d="M122.317 23.2008C121.939 22.8363 121.526 22.4907 121.087 22.1573C121.044 22.1248 121.004 22.0896 120.962 22.0571C120.857 21.9798 120.754 21.9026 120.647 21.8267C120.622 21.8077 120.594 21.7874 120.567 21.7697C118.809 20.5433 116.644 19.5568 114.21 18.8941L114.135 18.8778C113.835 18.7978 113.538 18.726 113.239 18.6515C112.438 18.4496 111.646 18.2585 110.872 18.0782C110.724 18.0457 110.576 18.0105 110.429 17.9766C110.411 17.9726 110.395 17.9685 110.377 17.9644C106.093 16.9751 102.71 16.1959 102.71 14.1428C102.71 12.4719 104.474 11.1235 106.996 10.8646C109.751 10.5895 112.339 11.4447 114.928 13.4896C115.304 13.8447 116.216 14.7188 116.587 15.1294C116.589 15.1307 116.591 15.1321 116.591 15.1334C116.626 15.1687 116.671 15.1904 116.723 15.1904C116.756 15.1904 116.785 15.1795 116.813 15.1632C116.815 15.1632 116.819 15.1632 116.819 15.1632L122.757 10.4039L123.698 9.64902L124.229 9.22486C124.229 9.22486 124.23 9.22216 124.232 9.21944C124.282 9.18827 124.317 9.13271 124.317 9.06767C124.317 9.02701 124.301 8.99041 124.278 8.96059C124.277 8.95924 124.277 8.95789 124.277 8.95654C124.276 8.95383 124.273 8.9511 124.272 8.94839C124.266 8.94433 124.264 8.93757 124.258 8.9335C123.746 8.28437 123.111 7.60676 122.605 7.07282C122.417 6.87225 122.245 6.69068 122.112 6.54432C120.696 4.93843 118.893 3.61576 116.848 2.62783C116.233 2.32969 115.598 2.05867 114.942 1.82423C112.727 1.03145 110.306 0.604572 107.822 0.604572C107.73 0.604572 107.638 0.607281 107.548 0.609993C107.479 0.612701 107.41 0.61541 107.342 0.61541C107.053 0.618118 106.77 0.624893 106.491 0.638447L106.429 0.641132C106.141 0.653332 105.852 0.680439 105.564 0.706188C100.334 1.32957 95.9022 3.92746 93.4595 7.52952C92.6817 8.67736 92.1046 9.92685 91.7695 11.2468C91.6671 11.7184 91.586 12.1995 91.5248 12.6914C91.5208 12.728 91.5142 12.7619 91.5102 12.7998C91.5062 12.8324 91.5035 12.8649 91.4996 12.8988C91.4371 13.3256 91.3958 13.7566 91.3958 14.1943C91.3958 15.269 91.5859 16.3138 91.941 17.3139C92.4449 18.7369 93.2907 20.0677 94.4076 21.2697C96.2214 23.2239 98.7597 24.8338 101.769 25.922L103.132 26.3597C103.857 26.582 106.562 27.162 107.702 27.4493C109.308 27.8545 110.803 28.3153 112.021 28.8194C113.766 29.5417 114.925 30.4334 114.925 31.8157C114.925 32.1179 114.865 32.4106 114.752 32.6912C114.686 32.8551 114.625 33.0015 114.523 33.1546C114.472 33.2454 114.408 33.3349 114.339 33.4216C114.082 33.8431 113.627 34.2049 113.063 34.4773L113.139 34.4447C111.419 35.3283 108.848 35.7105 106.055 35.35C104.541 35.1562 103.145 34.7673 101.951 34.2469C100.411 33.6303 98.7491 32.5123 97.2412 30.9782C97.1481 30.8847 97.0577 30.7885 96.9686 30.6936C96.9367 30.657 96.8915 30.6354 96.841 30.6354C96.7971 30.6354 96.7585 30.6516 96.7293 30.6787H96.7266L90.9517 35.308L89.6047 36.3881L89.5462 36.4342L89.5409 36.4396C89.5409 36.4396 89.5409 36.4409 89.5396 36.4423C89.489 36.4762 89.4531 36.5317 89.4531 36.5968C89.4531 36.6401 89.4704 36.6794 89.4944 36.7106C89.497 36.7133 89.497 36.7174 89.4983 36.7187C89.7204 37.0047 89.9504 37.2838 90.1857 37.5589C92.1298 39.8424 94.4688 41.6923 97.0577 43.0407C100.004 44.5734 103.274 45.4542 106.664 45.5464C106.823 45.5505 106.983 45.5545 107.142 45.5559C107.235 45.5572 107.327 45.5586 107.419 45.5586C114.699 45.541 121.006 42.5162 124.157 38.0956C125.521 36.1807 126.297 34.007 126.297 31.6991C126.297 28.4955 124.81 25.548 122.317 23.2008Z" fill="black"/>
<path d="M72.1241 1.55308C71.0031 1.19531 69.8476 0.928333 68.6682 0.763C67.7148 0.630192 66.7481 0.555679 65.7694 0.555679C53.9536 0.555679 44.3398 10.4431 44.3398 22.5963C44.3398 25.804 45.0326 28.8789 46.2599 31.6747C46.9394 33.2209 47.7851 34.6791 48.7691 36.0275C51.007 39.1593 54.0268 41.6705 57.5399 43.2655C57.6143 43.3008 57.6861 43.336 57.7605 43.3672C57.8776 43.42 57.9972 43.4702 58.1142 43.5203C60.6354 44.5963 63.3746 45.1953 66.2202 45.1953C66.2574 45.1953 66.292 45.1939 66.3266 45.1939C66.3665 45.1939 66.4037 45.1953 66.4409 45.1953C70.9699 45.1953 75.1758 43.7927 78.6649 41.394C80.5199 40.1148 82.1687 38.5522 83.5569 36.7701V36.7688C83.5756 36.7498 83.5875 36.7227 83.5875 36.6929C83.5875 36.6536 83.5649 36.6184 83.5343 36.5994L76.2315 30.8182C76.1983 30.7816 76.1518 30.7572 76.0986 30.7572C76.0467 30.7572 76.0002 30.7816 75.967 30.8182C75.9656 30.8182 75.9656 30.8196 75.9643 30.8196C75.3486 31.3684 72.5124 33.7169 68.5459 34.217C68.0698 34.2631 67.5685 34.2969 67.0366 34.3119C65.3319 34.3105 63.8759 34.0503 62.6286 33.6275C60.5317 32.8361 58.5078 31.3982 57.1342 29.4495C56.4082 28.3761 56.0187 27.4113 55.8445 26.8963C55.8019 26.7676 55.7607 26.6375 55.7248 26.5047H86.0368C86.1193 26.5047 86.1897 26.445 86.2044 26.3624C87.3439 19.3805 85.7563 12.8661 81.7299 8.02137C79.1782 4.95189 75.8406 2.73751 72.1241 1.55308ZM56.3683 17.1607C58.2765 13.6155 61.8547 11.2833 65.7694 11.2833C69.6881 11.2833 73.2676 13.6155 75.1744 17.1607H56.3683Z" fill="black"/>
<path d="M42.1361 1.83942L31.4666 1.8245C31.4639 1.8245 31.4626 1.8245 31.4599 1.8245C31.3203 1.8245 31.2073 1.92748 31.186 2.063V2.06437C29.5664 12.0913 27.4242 20.0612 24.6412 26.4197C23.8354 28.26 22.9564 29.9973 22.0256 31.5842L21.6998 32.1399L21.3634 31.5897C19.9419 29.2642 18.6428 26.7449 17.5006 24.1023C16.5858 21.9828 15.764 19.7657 15.0566 17.5134C13.5274 12.632 12.5009 7.47829 12.0036 2.18496L11.9996 2.18364C11.9783 1.98172 11.8134 1.8245 11.6086 1.8245H1.36986C1.15179 1.8245 0.974941 2.00473 0.974941 2.22698C0.974941 2.2595 0.980304 2.29068 0.986953 2.32185C1.09067 3.56049 1.22099 4.80859 1.3779 6.04045C2.86983 17.8969 6.71933 29.0351 12.5076 38.2504C12.9982 39.0296 13.9436 40.4553 13.9888 40.523L14.1936 40.832L13.905 41.0597C10.6246 43.6494 6.97059 45.4247 3.04263 46.3381L2.93891 46.3638C2.23549 46.5251 1.51486 46.6579 0.788843 46.7623L0.787464 46.7636C0.75954 46.7691 0.738281 46.7921 0.738281 46.8219V57.704C0.738281 57.7474 0.770185 57.7812 0.811406 57.7812C7.07966 57.3571 13.0301 55.266 18.0364 51.729C18.4633 51.4485 18.8343 51.1937 19.18 50.9471C19.7824 50.5161 20.3981 50.0418 21.0603 49.4997C23.959 47.1268 26.6303 44.205 28.9999 40.8157C35.4357 31.6114 39.9461 18.6125 42.41 2.17144L42.4087 2.17007C42.4114 2.15381 42.414 2.1389 42.414 2.12263C42.414 1.96679 42.289 1.83942 42.1361 1.83942Z" fill="black"/>
</svg>
