<svg width="99" height="99" viewBox="0 0 99 99" fill="none" xmlns="http://www.w3.org/2000/svg">
<path d="M98.1685 49.7918C98.1685 76.8007 76.2812 98.6971 49.2724 98.6971C22.2635 98.6971 0.367188 76.8007 0.367188 49.7918C0.367188 22.7831 22.2635 0.886719 49.2724 0.886719C76.2812 0.886719 98.1685 22.7831 98.1685 49.7918Z" fill="black"/>
<path d="M49.6579 77.0609C36.2254 77.1066 22.2448 65.6411 22.1819 47.222C22.1369 35.0473 28.7139 23.3219 37.1059 16.3676C45.3002 9.5929 56.5224 5.23514 66.6934 5.19922C68.0052 5.19922 69.3799 5.30685 70.2155 5.59439C61.3204 7.43632 54.2402 15.7204 54.2672 25.1098C54.2672 25.424 54.2939 25.7565 54.3298 25.9093C69.2178 29.5393 75.9745 38.5243 76.0195 50.9504C76.0553 63.3857 66.2441 77.007 49.6579 77.0609Z" fill="white"/>
</svg>
